<?xml version="1.0" encoding="utf-8"?>
<svg width="13px" height="23px" viewBox="0 0 13 23" version="1.1" xmlns:xlink="http://www.w3.org/1999/xlink" xmlns="http://www.w3.org/2000/svg">
  <path d="M-18442 3304.9L-18439.5 3304.9C-18439.2 3304.9 -18439 3304.68 -18439 3304.4L-18439 3301.03C-18439 3300.77 -18439.2 3300.55 -18439.5 3300.53C-18440.3 3300.48 -18441.8 3300.4 -18442.9 3300.4C-18446 3300.4 -18448 3302.24 -18448 3305.58L-18448 3308.9L-18451.5 3308.9C-18451.8 3308.9 -18452 3309.12 -18452 3309.4L-18452 3312.9C-18452 3313.18 -18451.8 3313.4 -18451.5 3313.4L-18448 3313.4L-18448 3322.9C-18448 3323.18 -18447.8 3323.4 -18447.5 3323.4L-18444 3323.4C-18443.7 3323.4 -18443.5 3323.18 -18443.5 3322.9L-18443.5 3313.4L-18439.9 3313.4C-18439.6 3313.4 -18439.4 3313.21 -18439.4 3312.95L-18439 3309.45C-18439 3309.16 -18439.2 3308.9 -18439.5 3308.9L-18443.5 3308.9L-18443.5 3306.4C-18443.5 3305.57 -18442.8 3304.9 -18442 3304.9L-18442 3304.9Z" id="Shape" fill="#E040FB" stroke="none" />
</svg>