<?xml version="1.0" encoding="utf-8"?>
<svg width="22px" height="22px" viewBox="0 0 22 22" version="1.1" xmlns:xlink="http://www.w3.org/1999/xlink" xmlns="http://www.w3.org/2000/svg">
  <path d="M-18396.5 3251.4C-18400.1 3251.4 -18403 3254.31 -18403 3257.9L-18403 3266.9C-18403 3270.48 -18400.1 3273.4 -18396.5 3273.4L-18387.5 3273.4C-18383.9 3273.4 -18381 3270.48 -18381 3266.9L-18381 3257.9C-18381 3254.31 -18383.9 3251.4 -18387.5 3251.4L-18396.5 3251.4L-18396.5 3251.4ZM-18386 3255.4C-18385.4 3255.4 -18385 3255.85 -18385 3256.4C-18385 3256.95 -18385.4 3257.4 -18386 3257.4C-18386.6 3257.4 -18387 3256.95 -18387 3256.4C-18387 3255.85 -18386.6 3255.4 -18386 3255.4L-18386 3255.4ZM-18392 3256.9C-18389 3256.9 -18386.5 3259.36 -18386.5 3262.4C-18386.5 3265.43 -18389 3267.9 -18392 3267.9C-18395 3267.9 -18397.5 3265.43 -18397.5 3262.4C-18397.5 3259.36 -18395 3256.9 -18392 3256.9L-18392 3256.9ZM-18392 3257.9C-18394.5 3257.9 -18396.5 3259.92 -18396.5 3262.4C-18396.5 3264.88 -18394.5 3266.9 -18392 3266.9C-18389.5 3266.9 -18387.5 3264.88 -18387.5 3262.4C-18387.5 3259.92 -18389.5 3257.9 -18392 3257.9L-18392 3257.9Z" id="Shape" fill="#E040FB" fill-rule="evenodd" stroke="none" />
</svg>