<?xml version="1.0" encoding="utf-8"?>
<svg width="23px" height="21.495117px" viewBox="0 0 23 21.495117" version="1.1" xmlns:xlink="http://www.w3.org/1999/xlink" xmlns="http://www.w3.org/2000/svg">
  <path d="M-18400 3300.4C-18401.7 3300.4 -18403 3301.44 -18403 3302.87C-18403 3304.3 -18401.7 3305.39 -18400 3305.39C-18398.3 3305.39 -18397 3304.33 -18397 3302.84C-18397.1 3301.41 -18398.3 3300.4 -18400 3300.4L-18400 3300.4ZM-18402.5 3306.4C-18402.8 3306.4 -18403 3306.62 -18403 3306.9L-18403 3321.4C-18403 3321.67 -18402.8 3321.9 -18402.5 3321.9L-18397.5 3321.9C-18397.2 3321.9 -18397 3321.67 -18397 3321.4L-18397 3306.9C-18397 3306.62 -18397.2 3306.4 -18397.5 3306.4L-18402.5 3306.4L-18402.5 3306.4ZM-18395 3306.4C-18395.3 3306.4 -18395.5 3306.62 -18395.5 3306.9L-18395.5 3321.4C-18395.5 3321.67 -18395.3 3321.9 -18395 3321.9L-18390.5 3321.9C-18390.2 3321.9 -18390 3321.67 -18390 3321.4L-18390 3313.9L-18390 3313.77L-18390 3313.65C-18390 3312.46 -18389.1 3311.49 -18387.9 3311.4C-18387.9 3311.39 -18387.8 3311.4 -18387.8 3311.4C-18387.7 3311.4 -18387.6 3311.39 -18387.6 3311.4C-18386.4 3311.49 -18385.5 3312.46 -18385.5 3313.65L-18385.5 3321.4C-18385.5 3321.67 -18385.3 3321.9 -18385 3321.9L-18380.5 3321.9C-18380.2 3321.9 -18380 3321.67 -18380 3321.4L-18380 3312.9C-18380 3309.66 -18381.7 3306.4 -18385.6 3306.4C-18387.4 3306.4 -18388.7 3307.08 -18389.5 3307.64L-18389.5 3306.9C-18389.5 3306.62 -18389.7 3306.4 -18390 3306.4L-18395 3306.4L-18395 3306.4Z" id="Shape" fill="#E040FB" fill-rule="evenodd" stroke="none" />
</svg>