<?xml version="1.0" encoding="utf-8"?>
<svg width="562.88965px" height="511.6399px" viewBox="0 0 562.88965 511.6399" version="1.1" xmlns:xlink="http://www.w3.org/1999/xlink" xmlns="http://www.w3.org/2000/svg">
  <path d="M126.733 186.775C149.471 237.215 142.525 289.525 111.224 303.645C79.9209 317.765 36.1143 288.335 13.3789 237.905C-9.3584 187.475 -2.41406 135.16 28.8887 121.042C60.1914 106.928 103.997 136.359 126.733 186.775L126.733 186.775ZM436.156 186.775C413.418 237.215 420.362 289.525 451.668 303.645C482.971 317.765 526.773 288.335 549.514 237.905C572.248 187.475 565.303 135.16 534.001 121.042C502.7 106.928 458.893 136.359 436.156 186.775L436.156 186.775ZM259.786 85.6824C271.441 139.751 253.676 189.445 220.107 196.685C186.542 203.915 149.883 165.945 138.229 111.881C126.577 57.8132 144.342 8.11743 177.909 0.884277C211.476 -6.35181 248.134 31.6133 259.786 85.6824L259.786 85.6824ZM302.269 85.7283C290.624 139.796 308.377 189.495 341.942 196.725C375.51 203.965 412.168 165.995 423.819 111.928C435.474 57.8594 417.711 8.16333 384.142 0.930176C350.574 -6.30371 313.917 31.6592 302.269 85.7283L302.269 85.7283ZM217.773 266.425C209.581 280.575 171.617 327.415 145.358 343.395C119.103 359.375 86.5664 382.775 92.0264 436.505C97.4834 490.245 152.602 513.245 188.887 511.205C225.173 509.175 293.586 502.495 342.43 509.265C391.271 516.035 452.916 510.905 467.352 459.455C481.788 408.005 449.502 375.225 424.308 356.625C399.115 338.035 357.043 282.425 344.081 256.895C331.121 231.375 265.154 184.635 217.773 266.425L217.773 266.425Z" id="g3023" fill="#2C2C2B" fill-rule="evenodd" stroke="none" />
</svg>