<?xml version="1.0" encoding="utf-8"?>
<svg width="25.060547px" height="20.365234px" viewBox="0 0 25.060547 20.365234" version="1.1" xmlns:xlink="http://www.w3.org/1999/xlink" xmlns="http://www.w3.org/2000/svg">
  <path d="M-18426.9 3253.81C-18427.9 3254.22 -18428.9 3254.5 -18429.9 3254.62C-18428.8 3253.98 -18428 3252.98 -18427.6 3251.78C-18428.6 3252.36 -18429.7 3252.79 -18430.9 3253.02C-18431.8 3252.02 -18433.2 3251.4 -18434.7 3251.4C-18437.5 3251.4 -18439.8 3253.7 -18439.8 3256.54C-18439.8 3256.94 -18439.7 3257.34 -18439.7 3257.71C-18443.9 3257.5 -18447.7 3255.45 -18450.3 3252.34C-18450.7 3253.1 -18451 3253.98 -18451 3254.93C-18451 3256.71 -18450 3258.28 -18448.7 3259.21C-18449.5 3259.18 -18450.3 3258.95 -18451 3258.56C-18451 3258.58 -18451 3258.6 -18451 3258.63C-18451 3261.12 -18449.2 3263.19 -18446.9 3263.67C-18447.3 3263.79 -18447.8 3263.85 -18448.2 3263.85C-18448.6 3263.85 -18448.9 3263.82 -18449.2 3263.76C-18448.5 3265.8 -18446.6 3267.29 -18444.4 3267.33C-18446.1 3268.71 -18448.4 3269.53 -18450.8 3269.53C-18451.2 3269.53 -18451.6 3269.5 -18452 3269.45C-18449.7 3270.92 -18447 3271.77 -18444.1 3271.77C-18434.7 3271.77 -18429.5 3263.93 -18429.5 3257.14C-18429.5 3256.92 -18429.5 3256.69 -18429.5 3256.47C-18428.5 3255.75 -18427.6 3254.84 -18426.9 3253.81L-18426.9 3253.81Z" id="Shape" fill="#E040FB" stroke="none" />
</svg>